<svg width="981" height="357" viewBox="0 0 981 357" fill="none" xmlns="http://www.w3.org/2000/svg">
<path d="M17.28 21.4V259H71.424V165.112L144 259H212.832L131.04 160.792C160.128 151.576 179.712 127.672 179.712 91.96C179.712 45.304 146.304 21.4 102.24 21.4H17.28ZM71.424 126.808V64.6H77.76C98.208 64.6 122.688 66.04 122.688 95.704C122.688 125.368 98.208 126.808 77.76 126.808H71.424ZM205.749 185.272C205.749 230.776 241.461 263.32 294.741 263.32C345.717 263.32 382.869 230.776 382.869 185.272C382.869 139.192 343.701 106.936 294.741 106.936C244.917 106.936 205.749 139.192 205.749 185.272ZM259.893 185.272C259.893 164.824 275.157 150.424 294.453 150.424C313.461 150.424 328.725 164.824 328.725 185.272C328.725 205.432 314.325 219.832 294.453 219.832C273.717 219.832 259.893 205.432 259.893 185.272Z" fill="white"/>
<path d="M338.624 185.272C338.624 230.776 374.336 263.32 427.616 263.32C478.592 263.32 515.744 230.776 515.744 185.272C515.744 139.192 476.576 106.936 427.616 106.936C377.792 106.936 338.624 139.192 338.624 185.272ZM392.768 185.272C392.768 164.824 408.032 150.424 427.328 150.424C446.336 150.424 461.6 164.824 461.6 185.272C461.6 205.432 447.2 219.832 427.328 219.832C406.592 219.832 392.768 205.432 392.768 185.272ZM708.454 111.256H642.214L590.662 162.808V11.32H539.686V259H590.662V199.96L649.702 259H715.366L638.182 181.816L708.454 111.256ZM725.874 259H776.85V11.32H725.874V259ZM921.718 111.256L886.582 187L845.398 111.256H786.646L856.63 235.96L805.654 333.88H864.406L980.47 111.256H921.718Z" fill="white"/>
</svg>
